<svg width="173" height="40" viewBox="0 0 173 40" fill="none" xmlns="http://www.w3.org/2000/svg">
<path d="M34.1422 5.85781C30.3647 2.08031 25.3422 0 20 0C14.6578 0 9.63531 2.08031 5.85781 5.85781C2.08031 9.63531 0 14.6578 0 20C0 25.3422 2.08039 30.3646 5.85781 34.1422C9.63523 37.9198 14.6578 40 20 40C25.3422 40 30.3647 37.9197 34.1422 34.1422C37.9197 30.3647 40 25.3422 40 20C40 14.6578 37.9196 9.63539 34.1422 5.85781Z" fill="#33CC95"/>
<g clip-path="url(#clip0)">
<path d="M20.5714 8V33.1429" stroke="white" stroke-width="2" stroke-linecap="round" stroke-linejoin="round"/>
<path d="M26.2857 12.5714H17.7143C16.6534 12.5714 15.636 12.9929 14.8859 13.743C14.1357 14.4931 13.7143 15.5106 13.7143 16.5714C13.7143 17.6323 14.1357 18.6497 14.8859 19.3999C15.636 20.15 16.6534 20.5714 17.7143 20.5714H23.4286C24.4894 20.5714 25.5069 20.9929 26.257 21.743C27.0072 22.4932 27.4286 23.5106 27.4286 24.5714C27.4286 25.6323 27.0072 26.6497 26.257 27.3999C25.5069 28.15 24.4894 28.5714 23.4286 28.5714H13.7143" stroke="white" stroke-width="2" stroke-linecap="round" stroke-linejoin="round"/>
</g>
<path d="M58.16 14.048C59.728 14.048 60.976 14.56 61.904 15.584C62.848 16.592 63.32 17.984 63.32 19.76V27.584H59.24V20.312C59.24 19.416 59.008 18.72 58.544 18.224C58.08 17.728 57.456 17.48 56.672 17.48C55.888 17.48 55.264 17.728 54.8 18.224C54.336 18.72 54.104 19.416 54.104 20.312V27.584H50V14.192H54.104V15.968C54.52 15.376 55.08 14.912 55.784 14.576C56.488 14.224 57.28 14.048 58.16 14.048Z" fill="white"/>
<path d="M65.3559 20.864C65.3559 19.488 65.6119 18.28 66.1239 17.24C66.6519 16.2 67.3639 15.4 68.2599 14.84C69.1559 14.28 70.1559 14 71.2599 14C72.2039 14 73.0279 14.192 73.7319 14.576C74.4519 14.96 75.0039 15.464 75.3879 16.088V14.192H79.4919V27.584H75.3879V25.688C74.9879 26.312 74.4279 26.816 73.7079 27.2C73.0039 27.584 72.1799 27.776 71.2359 27.776C70.1479 27.776 69.1559 27.496 68.2599 26.936C67.3639 26.36 66.6519 25.552 66.1239 24.512C65.6119 23.456 65.3559 22.24 65.3559 20.864ZM75.3879 20.888C75.3879 19.864 75.0999 19.056 74.5239 18.464C73.9639 17.872 73.2759 17.576 72.4599 17.576C71.6439 17.576 70.9479 17.872 70.3719 18.464C69.8119 19.04 69.5319 19.84 69.5319 20.864C69.5319 21.888 69.8119 22.704 70.3719 23.312C70.9479 23.904 71.6439 24.2 72.4599 24.2C73.2759 24.2 73.9639 23.904 74.5239 23.312C75.0999 22.72 75.3879 21.912 75.3879 20.888Z" fill="white"/>
<path d="M104.635 14.048C106.299 14.048 107.619 14.552 108.595 15.56C109.587 16.568 110.083 17.968 110.083 19.76V27.584H106.003V20.312C106.003 19.448 105.771 18.784 105.307 18.32C104.859 17.84 104.235 17.6 103.435 17.6C102.635 17.6 102.003 17.84 101.539 18.32C101.091 18.784 100.867 19.448 100.867 20.312V27.584H96.7869V20.312C96.7869 19.448 96.5549 18.784 96.0909 18.32C95.6429 17.84 95.0189 17.6 94.2189 17.6C93.4189 17.6 92.7869 17.84 92.3229 18.32C91.8749 18.784 91.6509 19.448 91.6509 20.312V27.584H87.5469V14.192H91.6509V15.872C92.0669 15.312 92.6109 14.872 93.2829 14.552C93.9549 14.216 94.7149 14.048 95.5629 14.048C96.5709 14.048 97.4669 14.264 98.2509 14.696C99.0509 15.128 99.6749 15.744 100.123 16.544C100.587 15.808 101.219 15.208 102.019 14.744C102.819 14.28 103.691 14.048 104.635 14.048Z" fill="white"/>
<path d="M119.049 27.776C117.737 27.776 116.553 27.496 115.497 26.936C114.457 26.376 113.633 25.576 113.025 24.536C112.433 23.496 112.137 22.28 112.137 20.888C112.137 19.512 112.441 18.304 113.049 17.264C113.657 16.208 114.489 15.4 115.545 14.84C116.601 14.28 117.785 14 119.097 14C120.409 14 121.593 14.28 122.649 14.84C123.705 15.4 124.537 16.208 125.145 17.264C125.753 18.304 126.057 19.512 126.057 20.888C126.057 22.264 125.745 23.48 125.121 24.536C124.513 25.576 123.673 26.376 122.601 26.936C121.545 27.496 120.361 27.776 119.049 27.776ZM119.049 24.224C119.833 24.224 120.497 23.936 121.041 23.36C121.601 22.784 121.881 21.96 121.881 20.888C121.881 19.816 121.609 18.992 121.065 18.416C120.537 17.84 119.881 17.552 119.097 17.552C118.297 17.552 117.633 17.84 117.105 18.416C116.577 18.976 116.313 19.8 116.313 20.888C116.313 21.96 116.569 22.784 117.081 23.36C117.609 23.936 118.265 24.224 119.049 24.224Z" fill="white"/>
<path d="M136.394 14.048C137.962 14.048 139.21 14.56 140.138 15.584C141.082 16.592 141.554 17.984 141.554 19.76V27.584H137.474V20.312C137.474 19.416 137.242 18.72 136.778 18.224C136.314 17.728 135.69 17.48 134.906 17.48C134.122 17.48 133.498 17.728 133.034 18.224C132.57 18.72 132.338 19.416 132.338 20.312V27.584H128.234V14.192H132.338V15.968C132.754 15.376 133.314 14.912 134.018 14.576C134.722 14.224 135.514 14.048 136.394 14.048Z" fill="white"/>
<path d="M157.03 20.672C157.03 21.056 157.006 21.456 156.958 21.872H147.67C147.734 22.704 147.998 23.344 148.462 23.792C148.942 24.224 149.526 24.44 150.214 24.44C151.238 24.44 151.95 24.008 152.35 23.144H156.718C156.494 24.024 156.086 24.816 155.494 25.52C154.918 26.224 154.19 26.776 153.31 27.176C152.43 27.576 151.446 27.776 150.358 27.776C149.046 27.776 147.878 27.496 146.854 26.936C145.83 26.376 145.03 25.576 144.454 24.536C143.878 23.496 143.59 22.28 143.59 20.888C143.59 19.496 143.87 18.28 144.43 17.24C145.006 16.2 145.806 15.4 146.83 14.84C147.854 14.28 149.03 14 150.358 14C151.654 14 152.806 14.272 153.814 14.816C154.822 15.36 155.606 16.136 156.166 17.144C156.742 18.152 157.03 19.328 157.03 20.672ZM152.83 19.592C152.83 18.888 152.59 18.328 152.11 17.912C151.63 17.496 151.03 17.288 150.31 17.288C149.622 17.288 149.038 17.488 148.558 17.888C148.094 18.288 147.806 18.856 147.694 19.592H152.83Z" fill="white"/>
<path d="M172.875 14.192L164.475 33.944H160.059L163.131 27.128L157.683 14.192H162.267L165.363 22.568L168.435 14.192H172.875Z" fill="white"/>
<defs>
<clipPath id="clip0">
<rect width="27.4286" height="27.4286" fill="white" transform="translate(6.85715 6.85714)"/>
</clipPath>
</defs>
</svg>
